<?xml version="1.0" encoding="utf-8"?>
<!-- Generator: Adobe Illustrator 27.5.0, SVG Export Plug-In . SVG Version: 6.00 Build 0)  -->
<svg version="1.1" xmlns="http://www.w3.org/2000/svg" xmlns:xlink="http://www.w3.org/1999/xlink" x="0px" y="0px"
	 viewBox="0 0 2200 2200" style="enable-background:new 0 0 2200 2200;" xml:space="preserve">
<g id="background">
	<rect style="fill:#FFFFFF;" width="2200" height="2200"/>
</g>
<g id="Objects">
	<g>
		<path style="fill:#F9B800;" d="M1548.253,1300.997c42.523-91.142,58.9-194.701,43.12-294.974
			c-13.57-86.228-41.957-156.905-86.781-216.071c-37.549-49.563-86.559-90.431-149.83-124.94
			c-74.857-40.829-162.066-60.885-252.177-58.007c-90.689,2.898-180.623,29.011-260.079,75.514
			c-92.742,54.279-159.403,126.168-198.133,213.671c-3.631,8.203-7.008,16.536-10.16,24.989c-3.705,5.561-5.915,11.963-6.475,18.557
			c-20.244,62.339-28.104,131.598-23.964,210.279c2.295,43.692,11.52,87.335,27.418,129.716c2.567,6.844,5.315,13.627,8.211,20.357
			c0.08,0.189,0.158,0.378,0.241,0.566c14.425,33.404,32.852,65.348,54.968,95.205c26.561,35.854,57.82,67.896,92.913,95.234
			c35.931,27.991,75.144,50.463,116.544,66.789c56.728,22.378,118.128,33.734,180.908,33.734c27.772,0,55.817-2.223,83.844-6.697
			c90.769-14.492,174.74-51.492,242.835-107c0.001,0,0.001-0.001,0.002-0.001c56.927-46.411,102.367-105.61,134.045-171.539
			C1546.688,1304.647,1547.544,1302.849,1548.253,1300.997z M1513.572,1018.267c0.721,4.58,1.361,9.175,1.925,13.781
			c-101.339,44.074-211.213,95.643-319.88,147.19l308.247-208.622C1507.726,985.809,1510.961,1001.674,1513.572,1018.267z
			 M1489.988,1236.879c-2.277,6.029-4.688,11.985-7.209,17.879c-53.778,17.744-145.826,52.364-240.453,90.482
			c3.82-2.785,7.632-5.565,11.445-8.345c94.936-69.224,192.431-140.315,261.125-199.078
			C1510.51,1171.298,1502.189,1204.576,1489.988,1236.879z M1473.531,888.388l-418.117,185.131l372.046-253.614
			c5.012,5.727,9.799,11.591,14.356,17.607C1453.784,853.31,1464.334,870.235,1473.531,888.388z M774.085,1369.432
			c-5.599-6.641-11.003-13.456-16.186-20.453c-10.732-14.488-20.368-29.457-28.903-44.8l409.212-181.188L774.085,1369.432z
			 M701.286,968.389c100.968-60.016,219.449-120.221,323.829-170.244c-23.067,15.775-46.179,30.929-67.983,45.225
			c-21.612,14.171-42.026,27.555-60.708,40.39c-51.992,35.72-102.464,71.144-148.396,111.741
			c-24.627,21.766-46.038,43.462-64.464,65.345C686.452,1027.832,692.341,997.124,701.286,968.389z M687.643,1190.11
			c56.244-30.403,111.046-60.887,164.069-90.387c45.079-25.08,89.556-49.825,134.15-74.109l-290.405,197.961
			C692.307,1212.507,689.7,1201.342,687.643,1190.11z M1357.763,758.939c-180.885,72.898-334.122,155.321-491.068,242.355
			c23.596-17.485,48.529-34.896,74.327-52.619c17.979-12.353,38.048-25.511,59.295-39.441
			c47.273-30.995,100.854-66.126,148.245-103.633c44.547-35.256,77.969-68.25,101.333-100.117
			c23.417,7.51,45.909,17.083,67.156,28.672C1331.529,742.051,1345.079,750.302,1357.763,758.939z M882.287,750.491
			c59.266-34.686,125.251-56.137,192.479-62.777c-88.135,40.817-196.167,92.984-299,148.31c0.831-0.934,1.652-1.874,2.494-2.801
			C806.373,802.272,841.372,774.438,882.287,750.491z M840.271,1432.288c105.608-47.165,218.277-100.718,327.793-152.771
			c29.13-13.846,58.48-27.797,87.857-41.703c-16.147,11.816-32.388,23.658-48.552,35.444
			c-109.149,79.587-212.366,154.85-273.613,211.664c-0.263-0.103-0.528-0.2-0.791-0.303
			C900.218,1471.703,869.063,1454.104,840.271,1432.288z M1053.954,1511.628c48.911-22.865,114.286-51.149,189.61-81.886
			c3.173-1.295,6.357-2.592,9.532-3.881c-32.338,25.958-64.725,53.31-94.819,80.897
			C1123.757,1512.408,1088.628,1514.088,1053.954,1511.628z"/>
		<path style="fill:#F9B800;" d="M1100,525.75c21.748,0,39.379-17.63,39.379-39.379V235.142c0-21.749-17.631-39.379-39.379-39.379
			s-39.379,17.63-39.379,39.379v251.229C1060.621,508.12,1078.252,525.75,1100,525.75z"/>
		<path style="fill:#F9B800;" d="M832.1,550.848c6.281,15.165,20.943,24.319,36.396,24.319c5.021,0,10.126-0.967,15.054-3.008
			c20.093-8.323,29.635-31.358,21.312-51.451l-46.06-111.198c-8.322-20.092-31.354-29.635-51.45-21.312
			c-20.093,8.323-29.635,31.358-21.312,51.451L832.1,550.848z"/>
		<path style="fill:#F9B800;" d="M645.646,697.868c7.689,7.69,17.766,11.534,27.845,11.534c10.077,0,20.157-3.846,27.845-11.534
			c15.379-15.378,15.379-40.312,0-55.69L523.69,464.531c-15.378-15.378-40.312-15.377-55.689,0
			c-15.379,15.378-15.379,40.312,0,55.69L645.646,697.868z"/>
		<path style="fill:#F9B800;" d="M391.379,847.775l138.269,57.273c4.929,2.042,10.031,3.008,15.054,3.008
			c15.452,0,30.116-9.155,36.396-24.319c8.323-20.093-1.219-43.128-21.312-51.451l-138.268-57.273
			c-20.09-8.321-43.127,1.219-51.451,21.312C361.745,816.417,371.287,839.453,391.379,847.775z"/>
		<path style="fill:#F9B800;" d="M541.144,1101.471c0-21.748-17.631-39.379-39.379-39.379H250.536
			c-21.749,0-39.379,17.631-39.379,39.379s17.63,39.379,39.379,39.379h251.229C523.513,1140.85,541.144,1123.219,541.144,1101.471z"
			/>
		<path style="fill:#F9B800;" d="M1316.45,572.159c4.929,2.042,10.031,3.008,15.054,3.008c15.452,0,30.116-9.155,36.396-24.319
			l46.06-111.198c8.323-20.093-1.219-43.128-21.312-51.451c-20.092-8.322-43.129,1.219-51.45,21.312l-46.06,111.198
			C1286.815,540.801,1296.357,563.836,1316.45,572.159z"/>
		<path style="fill:#F9B800;" d="M1526.509,709.401c10.078,0,20.156-3.845,27.845-11.534l177.646-177.646
			c15.379-15.378,15.379-40.312,0-55.69c-15.377-15.378-40.313-15.378-55.689,0l-177.646,177.646
			c-15.379,15.379-15.379,40.312,0,55.69C1506.353,705.557,1516.431,709.401,1526.509,709.401z"/>
		<path style="fill:#F9B800;" d="M1618.901,883.737c6.281,15.165,20.943,24.319,36.396,24.319c5.021,0,10.127-0.967,15.054-3.008
			l138.269-57.273c20.093-8.323,29.635-31.358,21.312-51.451c-8.322-20.093-31.361-29.633-51.45-21.312l-138.269,57.273
			C1620.12,840.608,1610.578,863.644,1618.901,883.737z"/>
		<path style="fill:#F9B800;" d="M1949.464,1062.092h-251.229c-21.748,0-39.379,17.631-39.379,39.379s17.631,39.379,39.379,39.379
			h251.229c21.748,0,39.379-17.631,39.379-39.379S1971.212,1062.092,1949.464,1062.092z"/>
		<path style="fill:#F9B800;" d="M1100,1677.19c-21.748,0-39.379,17.631-39.379,39.379v251.229
			c0,21.748,17.631,39.379,39.379,39.379s39.379-17.631,39.379-39.379v-251.229C1139.379,1694.821,1121.748,1677.19,1100,1677.19z"
			/>
		<path style="fill:#F9B800;" d="M883.55,1630.781c-20.092-8.322-43.129,1.22-51.45,21.312l-46.06,111.198
			c-8.323,20.093,1.219,43.128,21.312,51.451c4.929,2.041,10.031,3.007,15.054,3.007c15.452,0,30.116-9.155,36.396-24.319
			l46.061-111.198C913.185,1662.139,903.643,1639.104,883.55,1630.781z"/>
		<path style="fill:#F9B800;" d="M645.646,1505.073L468.001,1682.72c-15.379,15.378-15.379,40.312,0,55.689
			c7.689,7.689,17.767,11.534,27.845,11.534s20.156-3.845,27.845-11.534l177.646-177.646c15.379-15.378,15.379-40.312,0-55.689
			C685.957,1489.694,661.023,1489.694,645.646,1505.073z"/>
		<path style="fill:#F9B800;" d="M581.099,1319.204c-8.322-20.093-31.354-29.635-51.45-21.312l-138.269,57.272
			c-20.093,8.322-29.634,31.357-21.312,51.45c6.282,15.165,20.944,24.319,36.397,24.319c5.021,0,10.126-0.966,15.054-3.008
			l138.268-57.272C579.88,1362.332,589.422,1339.297,581.099,1319.204z"/>
		<path style="fill:#F9B800;" d="M1367.9,1652.093c-8.321-20.092-31.354-29.635-51.45-21.312
			c-20.093,8.322-29.635,31.357-21.313,51.45l46.061,111.198c6.281,15.165,20.943,24.319,36.396,24.319
			c5.021,0,10.126-0.966,15.054-3.007c20.093-8.323,29.635-31.358,21.312-51.451L1367.9,1652.093z"/>
		<path style="fill:#F9B800;" d="M1554.354,1505.073c-15.378-15.38-40.312-15.378-55.689,0c-15.379,15.378-15.379,40.312,0,55.689
			l177.646,177.646c7.689,7.69,17.766,11.534,27.845,11.534c10.077,0,20.156-3.846,27.845-11.534
			c15.379-15.378,15.379-40.312,0-55.689L1554.354,1505.073z"/>
		<path style="fill:#F9B800;" d="M1808.62,1355.165l-138.269-57.272c-20.091-8.322-43.129,1.22-51.45,21.312
			c-8.323,20.093,1.219,43.128,21.312,51.45l138.269,57.272c4.929,2.042,10.031,3.008,15.054,3.008
			c15.452,0,30.116-9.155,36.397-24.319C1838.255,1386.522,1828.713,1363.487,1808.62,1355.165z"/>
	</g>
</g>
</svg>
